<?xml version="1.0" encoding="UTF-8"?>
<svg id="Layer_1" xmlns="http://www.w3.org/2000/svg" version="1.1" viewBox="0 0 20 20">
  <!-- Generator: Adobe Illustrator 29.1.0, SVG Export Plug-In . SVG Version: 2.1.0 Build 142)  -->
  <defs>
    <style>
      .st0 {
        fill: #ff3600;
      }
    </style>
  </defs>
  <path class="st0" d="M5.8.46c-.28,0-.56.11-.78.33-.42.42-.44,1.08-.05,1.47l5.71,5.72c.46.53.77,1.29.77,2.05s-.31,1.47-.77,2l-5.71,5.72c-.39.39-.37,1.05.05,1.47.22.22.5.33.78.33.25,0,.5-.09.69-.28l8.54-8.54c.19-.19.27-.44.27-.7,0,0-.08-.55-.27-.74L6.5.74c-.19-.19-.44-.28-.69-.28h0Z"/>
</svg>