<?xml version="1.0" encoding="UTF-8"?>
<svg id="Layer_1" xmlns="http://www.w3.org/2000/svg" version="1.1" viewBox="0 0 20 20">
  <!-- Generator: Adobe Illustrator 29.1.0, SVG Export Plug-In . SVG Version: 2.1.0 Build 142)  -->
  <defs>
    <style>
      .st0 {
        fill: #ff3600;
      }
    </style>
  </defs>
  <path class="st0" d="M9.99,2.15s.03,0,.04,0c0,0,0,0,0,0l2.47,2.28c.33.3.76.46,1.19.46.24,0,.48-.05.7-.15.1-.04.2-.1.29-.16v.47c0,.72,0,.85,2.79,3.89-.19,0-.34,0-.46.02-1.23.09-1.78.99-1.78,1.78v7.13h-.88v-2.67c0-1.8-1.52-3.27-3.39-3.27h-1.92c-1.87,0-3.39,1.46-3.39,3.27v2.67h-.89v-7.13c0-.79-.56-1.69-1.78-1.78-.11,0-.23-.01-.39-.01l7.36-6.79s.02,0,.04,0M9.99.4c-.44,0-.89.16-1.22.47L.82,8.22c-.68.62-.67,1.91.01,2.53,0,0,.97-.05,1.62-.05.32,0,.57.01.57.05v7.36c0,.84.74,1.52,1.64,1.52h2.74v-4.42c0-.84.74-1.52,1.64-1.52h1.92c.91,0,1.64.68,1.64,1.52v4.42h2.73c.91,0,1.64-.68,1.64-1.52v-7.36s.25-.05.57-.05c.66,0,1.64.05,1.64.05.67-.62.66-1.91-.01-2.53,0,0-2.75-2.97-2.75-3.15V1.78c0-.7-.61-1.26-1.37-1.26s-1.37.57-1.37,1.26v1.38l-2.47-2.28c-.34-.31-.78-.47-1.22-.47h0Z"/>
</svg>