<?xml version="1.0" encoding="UTF-8"?>
<svg id="Layer_1" xmlns="http://www.w3.org/2000/svg" version="1.1" viewBox="0 0 841.89 595.28">
  <!-- Generator: Adobe Illustrator 29.1.0, SVG Export Plug-In . SVG Version: 2.1.0 Build 142)  -->
  <defs>
    <style>
      .st0 {
        fill-rule: evenodd;
      }
    </style>
  </defs>
  <path class="st0" d="M41.91,266.31l98.91.18c4.66,32.56-69.29,89.16-105.05,102.31,1.27,10.27,11.57,29.33,17.21,35.54,26.55-3.5,76-43.4,94.84-63.33,16.89-17.87,51.31-74.52,42.62-114.16l-148.47-1.01-.06,40.48Z"/>
  <path class="st0" d="M237.9,188.91c-48.65,21.87-19.73,90.41,28.73,73.86,46.92-16.03,21.61-96.49-28.73-73.86"/>
  <path class="st0" d="M166,351.98c3.86,12.9,25.46,23.11,35.45,31.26,6.87,5.61,31.69,25.06,38.63,27.51,6.64-3.29,26.21-17,30.49-24.31-6.69-9.66-36.78-29.49-46.96-37.69-18.87-15.22-44.6-18.16-57.6,3.23"/>
  <path d="M792.91,366.49c8.78,0,13.17,3.51,13.17,10.52v9.75c0,7.58-4.39,11.38-13.17,11.38h-50.55v-14.11h43.71c2.17,0,3.25-1.22,3.25-3.68,0-2.05-1.08-3.08-3.25-3.08h-31.14c-8.78,0-13.17-3.56-13.17-10.69v-8.3c0-7.41,4.39-11.12,13.17-11.12h49.61v13.26h-42.77c-2.17,0-3.25,1.03-3.25,3.08s1.08,2.99,3.25,2.99h31.14ZM710.54,398.14h-16.77v-34.22c0-11.18,6.87-16.77,20.61-16.77h22.15v13.26h-22.15c-2.57,0-3.85,1.11-3.85,3.34v34.39ZM642.19,360.42c-2.57,0-3.85,1.21-3.85,3.63v3.46h26.86c2.17,0,3.25-1.24,3.25-3.72,0-2.25-1.08-3.38-3.25-3.38h-23.01ZM684.36,384.03v14.11h-43.62c-12.78,0-19.16-5.16-19.16-15.48v-21.3c0-9.47,6.39-14.2,19.16-14.2h31.31c8.78,0,13.17,3.96,13.17,11.89v7.27c0,3.82-1.08,6.63-3.25,8.43-2.17,1.8-5.47,2.69-9.92,2.69h-33.7v3.25c0,2.23,1.28,3.34,3.85,3.34h42.17ZM613.02,398.14h-16.77v-34.39c0-2.23-1.28-3.34-3.83-3.34h-30.29v37.72h-16.77v-50.98h47.05c13.74,0,20.62,5.59,20.62,16.77v34.22ZM536.81,398.14h-16.77v-34.39c0-2.23-1.28-3.34-3.83-3.34h-30.29v37.72h-16.77v-50.98h47.05c13.74,0,20.61,5.59,20.61,16.77v34.22ZM460.59,347.16v34.39c0,11.06-6.87,16.6-20.62,16.6h-25.15c-13.74,0-20.62-5.59-20.62-16.77v-34.22h16.77v34.47c0,1.6,1.31,2.39,3.92,2.39h25.09c2.55,0,3.83-.8,3.83-2.39v-34.47h16.77ZM362.3,398.14h-16.77v-34.22c0-11.18,6.87-16.77,20.62-16.77h22.15v13.26h-22.15c-2.57,0-3.85,1.11-3.85,3.34v34.39ZM719.52,309.9c2.57,0,3.85-1.22,3.85-3.68v-3.51h-26.86c-2.17,0-3.25,1.25-3.25,3.76,0,2.28,1.08,3.42,3.25,3.42h23.01ZM677.43,285.61v-13.26h43.54c12.77,0,19.16,5.18,19.16,15.51v21.33c0,9.48-6.39,14.23-19.16,14.23h-31.31c-8.78,0-13.17-3.96-13.17-11.89v-7.61c0-7.64,4.39-11.46,13.17-11.46h33.7v-3.51c0-2.22-1.28-3.34-3.85-3.34h-42.09ZM655.88,291.68c8.78,0,13.17,3.51,13.17,10.52v9.75c0,7.58-4.39,11.38-13.17,11.38h-50.55v-14.12h43.71c2.17,0,3.25-1.22,3.25-3.68,0-2.05-1.08-3.08-3.25-3.08h-31.14c-8.78,0-13.17-3.56-13.17-10.69v-8.3c0-7.41,4.39-11.12,13.17-11.12h49.61v13.26h-42.77c-2.17,0-3.25,1.02-3.25,3.08s1.08,2.99,3.25,2.99h31.14ZM576.24,309.9c2.57,0,3.85-1.22,3.85-3.68v-3.51h-26.86c-2.17,0-3.25,1.25-3.25,3.76,0,2.28,1.08,3.42,3.25,3.42h23.01ZM534.15,285.61v-13.26h43.54c12.77,0,19.16,5.18,19.16,15.51v21.33c0,9.48-6.39,14.23-19.16,14.23h-31.31c-8.78,0-13.17-3.96-13.17-11.89v-7.61c0-7.64,4.39-11.46,13.17-11.46h33.7v-3.51c0-2.22-1.28-3.34-3.85-3.34h-42.09ZM524.66,323.33h-16.77v-34.39c0-2.22-1.28-3.34-3.83-3.34h-30.29v37.72h-16.77v-50.98h47.05c13.74,0,20.61,5.59,20.61,16.77v34.22ZM427.88,272.35c13.76,0,20.64,5.59,20.64,16.77v17.62c0,11.06-6.89,16.6-20.64,16.6h-26.46c-13.76,0-20.64-5.59-20.64-16.77v-17.45c0-11.18,6.88-16.77,20.64-16.77h26.46ZM401.4,285.61c-2.57,0-3.85,1.11-3.85,3.34v16.85c0,2.28,1.28,3.42,3.85,3.42h26.43c2.62,0,3.94-1.08,3.94-3.25v-17.02c0-2.22-1.31-3.34-3.94-3.34h-26.43ZM341.95,272.35h8.55v-15.74h15.99v15.74h9.32v13.26h-9.32v37.72h-15.99v-37.72h-8.55v-13.26ZM765.97,227.05v-29.51h16.77v50.81c0,11.18-6.87,16.77-20.62,16.77h-44.4v-14.11h42.86c3.59,0,5.39-1.6,5.39-4.79v-5.05h-36.44c-9.64,0-14.46-4.45-14.46-13.34v-30.28h16.77v26.09c0,2.28,1.31,3.42,3.92,3.42h30.21ZM653.48,210.8h-19.42v37.72h-16.77v-50.98h68.6c13.74,0,20.61,5.59,20.61,16.77v34.22h-16.77v-34.39c0-2.23-1.28-3.34-3.86-3.34h-15.64v37.72h-16.77v-37.72ZM555.71,210.8h-19.42v37.72h-16.77v-50.98h68.6c13.74,0,20.61,5.59,20.61,16.77v34.22h-16.77v-34.39c0-2.23-1.28-3.34-3.86-3.34h-15.64v37.72h-16.77v-37.72ZM490.42,197.54c13.76,0,20.64,5.59,20.64,16.77v17.62c0,11.06-6.88,16.6-20.64,16.6h-26.46c-13.76,0-20.64-5.59-20.64-16.77v-17.45c0-11.18,6.88-16.77,20.64-16.77h26.46ZM463.93,210.8c-2.57,0-3.85,1.11-3.85,3.34v16.85c0,2.28,1.28,3.42,3.85,3.42h26.43c2.62,0,3.94-1.08,3.94-3.25v-17.02c0-2.23-1.31-3.34-3.94-3.34h-26.43ZM381.72,210.8h-19.42v37.72h-16.77v-50.98h68.6c13.74,0,20.61,5.59,20.61,16.77v34.22h-16.77v-34.39c0-2.23-1.28-3.34-3.86-3.34h-15.64v37.72h-16.77v-37.72Z"/>
</svg>