<?xml version="1.0" encoding="UTF-8"?>
<svg id="Layer_1" xmlns="http://www.w3.org/2000/svg" version="1.1" viewBox="0 0 20 20">
  <!-- Generator: Adobe Illustrator 29.1.0, SVG Export Plug-In . SVG Version: 2.1.0 Build 142)  -->
  <defs>
    <style>
      .st0 {
        fill: #ff3600;
      }
    </style>
  </defs>
  <path class="st0" d="M14.22,3.51l-.75,1.83c1.86,1.16,3.1,3.23,3.1,5.58,0,3.63-2.95,6.58-6.58,6.58s-6.58-2.95-6.58-6.58c0-2.42,1.3-4.44,3.25-5.58l-1.1-1.7C3.11,5.13,1.47,7.83,1.47,10.92c0,4.71,3.82,8.53,8.53,8.53s8.53-3.82,8.53-8.53c0-3.17-1.73-5.94-4.3-7.41h0Z"/>
  <path class="st0" d="M10,.69c-.7,0-1.27.57-1.27,1.27v5.09c0,.7.57,1.27,1.27,1.27s1.27-.57,1.27-1.27V1.95c0-.7-.57-1.27-1.27-1.27h0Z"/>
</svg>