<?xml version="1.0" encoding="UTF-8"?>
<svg id="Layer_1" xmlns="http://www.w3.org/2000/svg" version="1.1" viewBox="0 0 20 20">
  <!-- Generator: Adobe Illustrator 29.1.0, SVG Export Plug-In . SVG Version: 2.1.0 Build 142)  -->
  <defs>
    <style>
      .st0 {
        fill: #ff3600;
      }
    </style>
  </defs>
  <path class="st0" d="M19.29,15.7c-.73-1.85-2.43-3.06-4.55-3.25-2.4-.21-7.36-.22-9.51.05-2.39.31-4.25,2.13-4.52,4.43-.06.53-.21,2.29.53,2.64l.06.03,17.18.1c.36,0,.65-.17.85-.48.6-.9.21-2.9-.04-3.54ZM17.91,18.01H2.59s-.04-.03-.06-.04c-.04-.03-.08-.05-.13-.08-.17-1.37.73-2.9,2.03-3.41,1.43-.55,7.54-.48,9.73-.34,1.35.09,2.4.54,3.04,1.31.54.65.78,1.51.72,2.55Z"/>
  <path class="st0" d="M10.03,12.25c.97,0,2.04-.32,3.14-1.11,1.66-1.2,2.47-3.05,2.2-5.08-.29-2.25-1.85-4.34-3.8-5.09-1.67-.64-3.44-.26-4.98,1.07-1.56,1.35-1.91,2.97-1.93,4.09-.02,1.42.48,2.89,1.39,4.04.89,1.13,2.3,2.08,3.97,2.08ZM9.3,2.6c.27-.06.54-.09.81-.09,1.33,0,2.46.74,3.1,2.08.73,1.52.69,3.8-.81,5.02-.48.39-1.82.83-2.48.81-2.17-.06-3.3-1.84-3.46-3.57-.15-1.73.67-3.8,2.85-4.26Z"/>
</svg>