<?xml version="1.0" encoding="UTF-8"?>
<svg id="Layer_1" xmlns="http://www.w3.org/2000/svg" version="1.1" viewBox="0 0 20 20">
  <!-- Generator: Adobe Illustrator 29.1.0, SVG Export Plug-In . SVG Version: 2.1.0 Build 142)  -->
  <defs>
    <style>
      .st0 {
        fill: #ff3600;
      }
    </style>
  </defs>
  <path class="st0" d="M17.72.5v1.19c-1.86-.37-1.04.94-1.19,2.38h2.97s0,4.89,0,4.89c0,.34-1.1,1.76-1.5,2.06-1.08.81-2.56.69-3.4,1.34-.35.27-2.1,2.78-1.92,2.97.04.04.56-.13.91.19.72.68,1.51,3.11,2.35,3.96H4.06c.85-.85,1.63-3.28,2.35-3.96.35-.33.87-.15.91-.19.18-.19-1.57-2.71-1.92-2.97-.85-.65-2.32-.54-3.4-1.34-.4-.3-1.5-1.72-1.5-2.06v-4.9h2.97c-.15-1.44.67-2.74-1.19-2.38.04-.21-.06-1.19,0-1.19h15.44ZM15.34,1.69H4.66v5.79c0,1.96,2.32,4.52,3.39,6.11,1,1.49.27,2.08,2.71,1.78.64-.08.76-1.12,1.2-1.78,1.07-1.59,3.39-4.14,3.39-6.11V1.69ZM3.47,5.25h-1.78c-.13,1.97-.11,4.81,2.38,5.04-.65-1.68-.68-3.25-.59-5.04ZM18.31,5.25h-1.78c.09,1.79.06,3.36-.59,5.04,2.49-.24,2.5-3.07,2.38-5.04ZM6.44,18.31h7.12c-.24-.35-.81-1.72-1.1-1.79-.43-.11-4.85-.06-5.07.07-.16.09-.72,1.41-.95,1.72Z"/>
  <path class="st0" d="M9.02,3.54c5.51-1.26,5.15,7.41-.23,5.74-2.49-.77-2.38-5.14.23-5.74ZM9.9,4.72c-3.02.27-.89,5.18,1.3,2.76,1.1-1.21-.13-2.87-1.3-2.76Z"/>
</svg>