<?xml version="1.0" encoding="UTF-8"?>
<svg xmlns="http://www.w3.org/2000/svg" version="1.1" viewBox="0 0 23 23">
  <!-- Generator: Adobe Illustrator 29.1.0, SVG Export Plug-In . SVG Version: 2.1.0 Build 142)  -->
  <defs>
    <style>
      .st0 {
        fill: #60bb46;
      }

      .st1 {
        display: none;
      }
    </style>
  </defs>
  <g id="Layer_1" class="st1">
    <g id="cuix7m">
      <g>
        <path class="st0" d="M12.45,15.63c-.11,0-.23-.03-.34-.07-.98-.41-2.25-.82-3.16-1.29-2.32-1.2-.91-3.74-.69-5.7l-1.87.8c-.2.24-.4,2.58-.61,3.12-.42,1.09-2.06.84-2.07-.45,0-.65.36-3.18.54-3.8.15-.5.44-.62.86-.86,1.14-.65,4.37-2.38,5.54-2.38,1.33,0,2.47,1.05,2.5,2.4l-1.13,4.93c.03.1.13.13.21.18.86.51,2.28.84,3.07,1.39.51.36.67.98.49,1.56-.16.52-2.13,3.48-2.56,4.03-.5.65-1.34.96-2,.33-1.26-1.2.96-2.99,1.21-4.2Z"/>
        <path class="st0" d="M10.39,15.16c-.13.85-.03,2.2-.49,2.92-1.25,1.27-2.36,2.84-3.6,4.09-.18.18-.56.56-.79.63-1.19.35-2.04-.74-1.57-1.83l3.44-4.22.21-3.24c.27.13.42.47.64.65.55.47,1.48.72,2.15,1Z"/>
        <path class="st0" d="M13.12,6.05l2.2,1.53c.17-.01,1.39-2.41,2-2.63,1.09-.39,1.81.62,1.27,1.65-.4.77-1.46,2.48-1.99,3.14-1.08,1.34-2.36-.26-3.43-.8.26-.99.34-1.91-.05-2.89Z"/>
        <path class="st0" d="M12.31.28c2.45-.6,3.9,2.46,2.07,3.98-1.23,1.02-3.3.38-3.67-1.19-.28-1.19.38-2.49,1.6-2.79Z"/>
      </g>
    </g>
  </g>
  <g id="Layer_2">
    <g>
      <g id="_x34_VTYN3.tif">
        <g>
          <path class="st0" d="M17.62,7.39c.64.88.19,1.91-.2,2.79l-.15.07c-.46,1.09-.98,2.15-1.42,3.25l3.78,7.84c.39,1.21-.99,2.04-1.88,1.17-1.48-2.4-2.96-4.8-4.41-7.22l-.16-.05c-.7-.91-1.74-2.48-1.13-3.62.25-.87,1.11-1.93,1.46-2.81.06-.1.04-.2-.06-.26l-2.02-.1c-.12.61.02,1.58-.22,2.14-.28.66-1.36.55-1.53-.22-.08-.4-.06-1.23-.07-1.68-.01-1.18-.19-1.74,1.13-2.1.96-.27,2.12-.51,3.11-.71,1.53-.3,3.09-.14,3.76,1.51Z"/>
          <path class="st0" d="M13.35,15.29c-.12-.05-.12.04-.17.11-.98,1.2-1.69,2.94-3.44,1.43-1.15-1-2.21-2.18-3.36-3.19-.52-.81.13-1.77,1.1-1.46.16.05.43.27.58.38.82.57,1.58,1.23,2.4,1.79l1.6-2.72c-.42,1.47.57,2.49,1.28,3.67Z"/>
          <path class="st0" d="M18.55,1.81c2.78.21,2.3,4.37-.35,4.06s-2.21-4.26.35-4.06Z"/>
          <path class="st0" d="M17.27,10.26c.44-1.04.81-1.71.35-2.86l1.46,1.85c.68-.06,2.36-.82,2.71.09.17.45-.05.84-.45,1.07-.26.15-2.31.8-2.59.81-.76.03-1.05-.45-1.48-.96Z"/>
        </g>
      </g>
      <path class="st0" d="M11.82,22.43c-4.52,0-8.63-3.1-9.71-7.7-.61-2.59-.17-5.27,1.23-7.53,1.05-1.7,2.56-3.02,4.34-3.82l-2.09-1.12.77-1.44,5.66,3.03-2.11.5c-2.17.51-4.01,1.83-5.18,3.72-1.17,1.89-1.54,4.13-1.03,6.3,1.05,4.48,5.55,7.26,10.02,6.21l.37,1.59c-.76.18-1.53.26-2.28.26Z"/>
    </g>
  </g>
</svg>