<?xml version="1.0" encoding="UTF-8"?>
<svg id="Layer_1" xmlns="http://www.w3.org/2000/svg" version="1.1" viewBox="0 0 23 23">
  <!-- Generator: Adobe Illustrator 29.1.0, SVG Export Plug-In . SVG Version: 2.1.0 Build 142)  -->
  <defs>
    <style>
      .st0 {
        fill: #60bb46;
      }
    </style>
  </defs>
  <g id="cuix7m">
    <g>
      <path class="st0" d="M12.45,15.63c-.11,0-.23-.03-.34-.07-.98-.41-2.25-.82-3.16-1.29-2.32-1.2-.91-3.74-.69-5.7l-1.87.8c-.2.24-.4,2.58-.61,3.12-.42,1.09-2.06.84-2.07-.45,0-.65.36-3.18.54-3.8.15-.5.44-.62.86-.86,1.14-.65,4.37-2.38,5.54-2.38,1.33,0,2.47,1.05,2.5,2.4l-1.13,4.93c.03.1.13.13.21.18.86.51,2.28.84,3.07,1.39.51.36.67.98.49,1.56-.16.52-2.13,3.48-2.56,4.03-.5.65-1.34.96-2,.33-1.26-1.2.96-2.99,1.21-4.2Z"/>
      <path class="st0" d="M10.39,15.16c-.13.85-.03,2.2-.49,2.92-1.25,1.27-2.36,2.84-3.6,4.09-.18.18-.56.56-.79.63-1.19.35-2.04-.74-1.57-1.83l3.44-4.22.21-3.24c.27.13.42.47.64.65.55.47,1.48.72,2.15,1Z"/>
      <path class="st0" d="M13.12,6.05l2.2,1.53c.17-.01,1.39-2.41,2-2.63,1.09-.39,1.81.62,1.27,1.65-.4.77-1.46,2.48-1.99,3.14-1.08,1.34-2.36-.26-3.43-.8.26-.99.34-1.91-.05-2.89Z"/>
      <path class="st0" d="M12.31.28c2.45-.6,3.9,2.46,2.07,3.98-1.23,1.02-3.3.38-3.67-1.19-.28-1.19.38-2.49,1.6-2.79Z"/>
    </g>
  </g>
</svg>