<?xml version="1.0" encoding="UTF-8"?>
<svg id="Layer_1" xmlns="http://www.w3.org/2000/svg" version="1.1" viewBox="0 0 23 23">
  <!-- Generator: Adobe Illustrator 29.1.0, SVG Export Plug-In . SVG Version: 2.1.0 Build 142)  -->
  <defs>
    <style>
      .st0 {
        fill: #89c540;
      }
    </style>
  </defs>
  <g id="_x34_VTYN3.tif">
    <g>
      <path class="st0" d="M17.71,6.98c.64.89.19,1.94-.2,2.83l-.15.08c-.47,1.1-1,2.18-1.45,3.3l3.84,7.96c.39,1.22-1.01,2.07-1.9,1.18-1.51-2.43-3.01-4.87-4.47-7.33l-.16-.05c-.71-.92-1.76-2.52-1.14-3.67.26-.88,1.13-1.95,1.48-2.85.06-.1.04-.21-.06-.27l-2.05-.1c-.12.62.02,1.61-.22,2.18-.28.67-1.38.56-1.55-.23-.09-.41-.06-1.25-.07-1.7-.01-1.2-.19-1.77,1.15-2.14.98-.27,2.15-.52,3.15-.72,1.55-.31,3.14-.15,3.81,1.53Z"/>
      <path class="st0" d="M13.37,14.99c-.12-.05-.12.04-.18.11-1,1.22-1.72,2.98-3.49,1.45-1.17-1.01-2.25-2.21-3.41-3.24-.53-.82.14-1.8,1.11-1.48.16.05.44.28.59.38.83.58,1.6,1.24,2.44,1.81l1.62-2.76c-.43,1.49.58,2.52,1.3,3.73Z"/>
      <path class="st0" d="M18.65,1.32c2.82.22,2.33,4.44-.35,4.12s-2.24-4.32.35-4.12Z"/>
      <path class="st0" d="M17.35,9.89c.45-1.05.82-1.74.35-2.91l1.48,1.88c.69-.06,2.4-.83,2.75.09.17.46-.05.86-.45,1.08-.26.15-2.35.81-2.62.82-.77.03-1.07-.45-1.5-.98Z"/>
    </g>
  </g>
  <path class="st0" d="M11.82,22.24c-4.59,0-8.76-3.15-9.85-7.81-.62-2.63-.17-5.35,1.25-7.64,1.07-1.73,2.6-3.06,4.41-3.88l-2.12-1.13.78-1.46,5.74,3.07-2.14.5c-2.2.52-4.07,1.86-5.26,3.78-1.19,1.92-1.56,4.19-1.05,6.39,1.07,4.54,5.63,7.37,10.17,6.3l.38,1.62c-.77.18-1.55.27-2.31.27Z"/>
</svg>