<?xml version="1.0" encoding="UTF-8"?>
<svg id="Layer_1" xmlns="http://www.w3.org/2000/svg" version="1.1" viewBox="0 0 20 20">
  <!-- Generator: Adobe Illustrator 29.1.0, SVG Export Plug-In . SVG Version: 2.1.0 Build 142)  -->
  <defs>
    <style>
      .st0 {
        fill: #ff3600;
      }
    </style>
  </defs>
  <path class="st0" d="M19.44,16.69c-.23-.22-.51-.46-.81-.72-1.04-.9-2.33-2.01-2.72-2.98-.41-1.01-1.11-4.02-1.05-5.09.02-.26.08-.53.15-.79.15-.63.31-1.27-.19-1.96-.43-.6-1.81-.33-1.96-.3-.49.1-.84.42-1.14.71-.29.26-.53.49-.83.51-1.01.06-2.07-.55-2.59-1.48-.56-1.01-.31-1.44-.02-1.94.27-.46.58-.99.15-1.99l-.03-.08h-.09c-1.53-.16-3.33.96-4.36,2.06-.21.23-.43.58-.65.93-.23.38-.48.77-.67.92-.36.29-.77.4-1.13.5-.41.11-.77.21-.92.54-.16.35-.03.88.42,1.79.68,1.35,1.91,2.52,3.1,3.64.72.68,1.4,1.33,1.96,2.01.42.52.77,1,1.11,1.47.85,1.18,1.59,2.19,3.13,3.24,1.42.97,3.5,1.8,5.35,1.8.55,0,1.08-.07,1.57-.24,1.11-.38,1.87-1.17,2.26-2.37l.03-.09-.07-.06ZM8.78,14.03c1.48,2.02,4.07,3.34,6.12,3.95-.08,0-.19-.01-.35-.04-.03,0-.05,0-.07-.01-3.24-.46-4.8-2.52-6.46-4.69-.41-.54-.83-1.09-1.29-1.64-.39-.47-1.01-1.05-1.67-1.66-1.21-1.13-2.58-2.4-2.88-3.32-.05-.14-.03-.27.06-.39.17-.24.52-.39.66-.42.08.11.26.39.42.64.29.46.63.98.79,1.17.35.4.71.78,1.06,1.14.66.69,1.29,1.34,1.84,2.15.3.45.57.97.82,1.47.29.57.59,1.16.95,1.65ZM8.9,11.5c-.29-.57-.59-1.16-.94-1.65-.3-.41-.89-1.04-1.53-1.71-1.02-1.07-2.29-2.41-2.41-3-.11-.52,1-1.71,1.61-2.21.25-.2.96-.66,1.33-.82-.53,1.14-.44,2.38.26,3.43.89,1.33,2.54,2.07,4.2,1.87.37-.04.66-.32.96-.62.39-.38.78-.77,1.39-.67-.09.31-.15.84-.21,1.48-.02.24-.05.51-.07.62-.07,0-.21-.01-.31-.03-.35-.05-.84-.11-1.12.17-.17.17-.24.43-.2.78.05.49.69.5,1.2.51.22,0,.48,0,.59.06.02.04.04.11.06.16,0,.02.02.04.02.07-.01,0-.02,0-.04,0-.51-.02-1.14-.05-1.41.29-.13.17-.15.41-.05.7.14.42.62.4,1.04.38.51-.02.78,0,.86.24h-1.22s0,1.39,0,1.39l.17-.02c1.24-.17,1.3,0,1.46.49.07.21.16.48.35.78.46.72,1.83,1.99,2.64,2.74l.19.17s.06.05.1.06c0,0,0,0,0,0-.37.15-2.34-.35-3.04-.6-1.59-.57-4.08-2.21-5.04-3.54-.31-.43-.58-.96-.86-1.53Z"/>
</svg>